<?xml version="1.0" encoding="utf-8"?>
<!-- Generator: Adobe Illustrator 27.5.0, SVG Export Plug-In . SVG Version: 6.00 Build 0)  -->
<svg version="1.1" xmlns="http://www.w3.org/2000/svg" xmlns:xlink="http://www.w3.org/1999/xlink" x="0px" y="0px"
	 viewBox="0 0 1119.973 1122" style="enable-background:new 0 0 1119.973 1122;" xml:space="preserve">
<g id="BG">
	<rect x="0" y="0" style="fill:#272525;" width="1119.973" height="1122"/>
</g>
<g id="OBJECT">
	<g>
		<g>
			<path style="fill:#FFFFFF;" d="M579.379,867.872c-7.433,5.456-14.455,11.881-21.12,18.453c-0.735-0.013-1.48,0.255-2.107,0.917
				c-13.987,14.754-28.654,25.961-48.597,31.484c-15.326,4.244-30.073,3.885-45.064,1.302c-0.436,0.007-0.868-0.004-1.303-0.007
				c-1.351,0.175-2.704,0.34-4.072,0.443c-3.302,0.246-7.508,0.277-12.061,0.015c-14.503,0.03-30.549-2.013-43.051-9.751
				c-24.642-8.017-46.147-25.626-60.826-47.685c-25.288-38.005-30.349-84.007-38.112-127.841c-0.222-1.251-2.253-1.365-2.113,0.068
				c4.574,46.777,12.81,97.872,40.763,137.005c23.554,32.975,63.053,57.705,104.687,50.539c1.387-0.239,2.134-1.062,2.417-2.094
				c35.65,17.905,89.57,3.136,112.252-29.421c0.557-0.799,0.64-1.647,0.428-2.414c7.437-5.401,14.758-11.158,21.261-17.474
				C584.591,869.633,581.329,866.44,579.379,867.872z"/>
			<path style="fill:#FFFFFF;" d="M540.519,652.327c-29.795-2.533-60.975,0.921-90.677,7.412c0.699,1.816,1.507,3.604,2.408,5.346
				c29.475-5.136,58.873-6.448,89.209-6.922C545.599,658.098,543.897,652.614,540.519,652.327z"/>
			<path style="fill:#FFFFFF;" d="M409.994,673.424c-0.685-0.749-1.379-1.496-2.07-2.245c-30.83,10.205-60.115,24.248-87.545,41.822
				c-1,0.641,0.229,2.152,1.184,1.579c28.11-16.876,58.333-30.244,89.729-39.711C410.859,674.387,410.428,673.899,409.994,673.424z"
				/>
			<path style="fill:#FFFFFF;" d="M540.551,662.612c-28.673-0.876-57.442,1.674-85.587,7.085
				c3.733,5.599,8.637,10.274,14.695,12.774c1.255,0.518,2.08,1.715,2.409,3.031c0.125,0.08,0.254,0.15,0.378,0.23
				c2.056,1.323,1.982,4.47,0.653,6.211c-8.907,11.664-29.631,9.105-40.636,2.759c-6.654-3.837-12.025-9.561-17.166-15.337
				c-35.153,10.266-70.95,24.86-100.306,45.979c-0.343,0.146-0.597,0.346-0.757,0.598c8.373,3.07,17.547,2.214,26.337,1.642
				c1.888-0.123,3.773-0.27,5.659-0.414c1.795-0.473,3.59-0.945,5.385-1.417c25.784-3.823,51.435-9.693,76.411-15.869
				c37.764-9.339,74.901-20.84,111.34-34.156c2.584-0.944,3.125-3.026,2.469-4.9c0.032,0,0.064,0,0.096,0
				C547.844,670.867,545.707,662.769,540.551,662.612z"/>
			<path style="fill:#FFFFFF;" d="M582.667,700.448c-8.572-15.12-19.164-29.539-30.113-43.009c-0.705-0.867-2.503-0.371-1.856,0.862
				c7.993,15.232,16.997,30.56,27.43,44.255C579.813,704.768,584.315,703.356,582.667,700.448z"/>
			<path style="fill:#FFFFFF;" d="M818.982,391.166c-74.064,26.145-85.478,114.955-83.783,182.458
				c1.059,42.188,4.798,84.996-4.614,126.568c-7.841,34.633-24.15,67.431-46.171,95.211c-24.967,31.496-57.171,55.749-93.668,72.327
				c-1.838,0.835-0.497,3.617,1.273,2.958c61.595-22.941,111.361-74.887,135.463-135.611
				c14.234-35.862,17.553-73.665,17.086-111.964c-0.52-42.622-4.625-86.039,4.355-128.111c8.816-41.308,32.549-80.554,73.056-96.872
				C826.435,396.333,823.133,389.701,818.982,391.166z"/>
			<path style="fill:#FFFFFF;" d="M809.277,361.231c-48.914,17.621-84.082,60.586-93.882,111.718
				c-6.231,32.509-4.394,65.893-9.304,98.567c-4.689,31.209-17.297,59.393-40.455,81.221c-24.922,23.491-55.95,34.87-89.629,37.942
				c-1.781,0.162-1.063,2.401,0.405,2.514c51.898,3.988,103.621-32.197,124.681-78.392c27.621-60.585,3.949-132.804,41.083-190.536
				c16.911-26.292,42.224-46.144,71.439-56.818C812.252,365.263,810.846,363.176,809.277,361.231z"/>
			<path style="fill:#FFFFFF;" d="M409.994,673.424c-1.015-1.111-2.049-2.216-3.06-3.334
				c-34.804,11.398-70.174,28.106-97.463,52.097c-0.785,0.691,0.186,1.954,1.063,1.417c32.266-19.756,63.971-37.897,99.728-49.881
				C410.173,673.625,410.083,673.522,409.994,673.424z"/>
			<path style="fill:#FFFFFF;" d="M548.249,650.919c-1.988-0.433-4.68,0.114-6.372,1.551c-0.064-0.009-0.116-0.044-0.182-0.048
				c-30.898-1.896-61.915,0.251-92.206,6.345c0.501,1.379,1.061,2.746,1.679,4.094c30.007-5.874,60.695-7.742,91.296-5.67
				c1.532,0.104,2.062-0.926,1.916-2.051c0.765-0.279,1.565-0.429,2.512-0.225c1.99,0.429,2.846,1.936,3.215,3.802
				c0.43,2.171,4.641,3.313,4.629,0.431C554.72,655.383,552.019,651.74,548.249,650.919z"/>
			<path style="fill:#FFFFFF;" d="M597.828,813.701c-0.883-28.285-6.249-55.614-14.793-82.512c-0.162-0.51-1.136-0.43-0.972,0.158
				c6.531,23.354,10.452,47.858,11.523,72.08c1.141,25.807,1.789,54.412-21.462,70.853c-2.127,1.504,0.461,4.438,2.536,3.382
				C597.471,866.057,598.519,835.854,597.828,813.701z"/>
			<path style="fill:#FFFFFF;" d="M562.231,674.544c-73.459,57.695-165.465,82.395-258.074,75.818
				c-1.129-0.08-0.931,1.69,0.056,1.828c92.132,12.825,188.391-16.424,261.268-73.312
				C568.041,676.881,564.643,672.65,562.231,674.544z"/>
			<path style="fill:#FFFFFF;" d="M805.021,361.496c-1.24,0.474-2.478,0.951-3.719,1.421c0.253,0.246,0.591,0.355,0.904,0.291
				c11.25,9.399,17.84,18.856,17.991,34.027c0.03,3.056,4.971,4.817,5.424,1.18C827.373,384.339,818.69,366.865,805.021,361.496z"/>
			<path style="fill:#FFFFFF;" d="M832.607,400.629c-7.361,4.215-13.541,2.596-20.846-0.412c-0.641-0.264-1.243,0.372-0.798,0.969
				c5.294,7.118,17.027,6.747,23.801,2.319C836.585,402.315,834.356,399.628,832.607,400.629z"/>
			<path style="fill:#FFFFFF;" d="M929.365,318.355c-36.353,9.956-72.713,22.692-108.205,35.499
				c-0.119-0.156-0.239-0.313-0.422-0.444c-9.788-7.019-24.9-0.374-23.431,12.489c0.121,1.057,1.712,1.278,1.953,0.182
				c2.004-9.135,10.424-14.022,18.866-9.769c0.213,0.26,0.53,0.424,0.887,0.406c0.883,0.387,1.666,0.062,2.125-0.559
				c36.622-10.401,73.953-21.336,109.609-34.595C932.845,320.783,931.297,317.826,929.365,318.355z"/>
			<path style="fill:#FFFFFF;" d="M976.392,311.5c-9.54-4.633-20.182,3.351-29.71,4.225c-0.763,0.07-0.502,1.143,0.179,1.115
				c5.312-0.222,10.083-1.97,15.222-3.148c9.276-2.126,20.242,2.318,17.522,13.399c-50.787,15.181-104.372,37.553-145.768,71.38
				c-0.86,0.703,0.195,2.001,1.109,1.478c23.115-13.229,45.379-27.426,69.532-38.82c24.96-11.774,50.743-21.556,77.222-29.323
				c0.573-0.168,0.959-0.462,1.198-0.823c0.373-0.187,0.697-0.49,0.865-1.04C985.907,322.918,983.307,314.858,976.392,311.5z"/>
			<path style="fill:#FFFFFF;" d="M820.951,358.155c-0.566-0.237-1.055,0.49-0.513,0.862c11.021,7.578,16.909,18.701,14.879,32.189
				c-0.281,1.869,2.848,2.747,3.195,0.695C840.752,378.648,833.652,363.471,820.951,358.155z"/>
			<path style="fill:#FFFFFF;" d="M460.706,920.019c-1.196,0.151-2.378,0.354-3.59,0.445c-3.3,0.246-7.504,0.277-12.054,0.015
				c-11.967,0.025-24.982-1.362-36.2-6.189c-1.615-0.187-3.232-0.338-4.84-0.59c-2.939-0.461-2.833,3.271-0.418,4.044
				c23.135,7.403,45.647,8.528,68.556,1.302C468.408,919.762,464.523,920.073,460.706,920.019z"/>
			<path style="fill:#FFFFFF;" d="M636.445,722.361c-16.756-5.561-32.437,2.986-45.858,12.715c-0.596-2.097-1.197-4.176-1.807-6.192
				c-1.327-4.385-9.438-3.767-8.311,1.355c8.46,38.433,21.798,74.405,5.491,113.224c-13.566,32.294-45.751,55.165-80.555,58.271
				c-2.473,0.221-1.527,3.429,0.569,3.53c19.731,0.949,38.811-4.084,54.681-14.228c15.551-6.691,30.723-15.119,44.639-24.723
				c3.617-2.496-0.78-7.468-4.275-5.7c-6.249,3.161-12.42,6.674-18.49,10.372c3.608-4.696,6.824-9.796,9.492-15.358
				c16.58-34.56,9.22-82.59-1.084-119.335c9.871-7.052,20.517-13.366,32.864-14.156c19.502-1.248,34.924,14.762,29,34.313
				c-0.137,0.451,0.605,0.846,0.755,0.366C658.024,742.498,650.932,727.17,636.445,722.361z"/>
			<path style="fill:#FFFFFF;" d="M402.633,664.649c-37.645,13.198-72.81,33.325-102.891,60.279c-1.575,1.411,1.197,4.149,2.82,2.95
				c32.837-24.259,69.004-42.82,107.091-54.822C407.156,670.339,404.567,667.647,402.633,664.649z"/>
			<path style="fill:#FFFFFF;" d="M978.735,311.774c-21.832-10.757-44.484-0.442-65.837,6.804
				c-27.571,9.356-55.678,18.033-82.633,29.162c-5.523-5.278-14.132-7.519-21.456-5.342c-7.837,2.329-15.547,11.082-14.44,19.549
				c-0.293,0.034-0.586,0.064-0.886,0.143c-70.96,18.634-77.864,109.006-83.192,168.041c-3.546,39.293-10.239,80.607-37.498,111.058
				c-12.766,14.261-29.169,25.122-46.921,32.147c-15.892,6.289-32.029,7.325-48.634,9.446c-6.819-9.705-14.331-19.098-22.462-27.494
				c0.563-3.012-1.087-6.553-5.041-7.008c-34.1-3.918-68.68-2.493-102.159,4.089c0.805,3.453,1.988,6.969,3.527,10.352
				c31.577-5.742,64.089-6.986,96.831-3.198c8.636,15.935,20.174,31.177,31.982,44.617c4.275,4.866,11.561,0.77,7.931-5.172
				c-2.059-3.37-4.22-6.743-6.452-10.099c26.67,3.802,56.395-7.718,77.568-22.732c28.514-20.218,44.903-50.206,53.033-83.7
				c17.788-73.288,2.579-173.89,86.175-209.452c3.29-1.4,3.887-4.286,2.925-6.768c2.648-5.735,3.934-12.221,10.822-14.496
				c3.478-1.149,6.524-0.637,9.272,0.74c-0.53,1.801,1.346,4.113,3.653,3.544c0.336-0.083,0.67-0.177,1.005-0.261
				c0.688,0.62,1.363,1.263,2.016,1.938c2.95,3.052,8.171-0.247,6.534-4.164c21.348-5.813,42.326-13.214,63.272-20.248
				c22.632-7.601,54.563-24.841,77.889-13.677C981.112,322.252,983.939,314.338,978.735,311.774z"/>
			<path style="fill:#FFFFFF;" d="M981.633,321.389c-0.032-0.15-0.038-0.297-0.09-0.447c-1.186-3.403-4.222-5.678-6.359-8.439
				c-1.088-1.406-3.757-0.592-2.87,1.332c1.209,2.624,1.879,5.595,3.488,8.024c-44.72,15.816-95.749,35.495-132.527,66.283
				c-0.299-3.303-1.614-6.379-4.372-8.64c-0.963-0.789-2.459-0.477-2.676,0.838c-1.067,6.463,0.142,12.778-4.839,18.036
				c-2.759,2.913-6.983,4.607-10.997,4.244c-2.81-0.254-4.821-1.667-7.014-3.004c0.35-1.327-0.821-3.031-2.339-2.367
				c-0.475,0.208-0.918,0.462-1.389,0.677c-2.168-0.321-4.241,0.829-5.202,2.538c-33.204,17.811-52.588,54.191-61.886,89.726
				c-14.133,54.016-7.906,110.587-10.216,165.726c-2.157,51.495-15.347,99.312-48.43,139.63
				c-30.08,36.658-68.96,58.449-113.106,73.809c-5.709,1.986-2.598,11.03,2.973,10.151
				c83.694-13.216,149.415-89.056,165.949-169.453c11.617-56.489,3.531-114.002,8.213-171.022
				c4.236-51.589,21.434-96.7,58.327-132.422c7.877,7.146,22.232,5.957,29.92-0.957c3.298-2.966,5.936-7.719,6.835-12.571
				c22.291-9.482,43.095-22.564,65.088-32.79c24.076-11.194,48.767-21.056,73.874-29.682
				C986.722,328.986,985.142,323.192,981.633,321.389z"/>
			<path style="fill:#FFFFFF;" d="M460.76,920.019c-1.215,0.149-2.416,0.353-3.645,0.445c-3.303,0.247-7.511,0.277-12.065,0.015
				c-14.025,0.029-29.507-1.856-41.819-8.98c-23.739-6.289-44.876-21.829-60.928-44.429c-27.755-39.079-34.249-87.047-43.045-132.94
				c-0.482-2.517-4.531-2.771-4.273,0.138c4.717,53.181,13.894,111.571,50.166,153.329c29.215,33.633,81.717,55.68,123.691,31.972
				C466.158,919.907,463.444,920.055,460.76,920.019z"/>
			<path style="fill:#FFFFFF;" d="M578.948,697.257c-1.746-1.024-3.063,1.476-1.587,2.666c4.226,3.407,7.057,8.203,7.909,13.586
				c0.858,5.424-0.929,9.492-2.71,14.431c-1.051,2.916,3.2,6.111,5.358,3.441C596.571,720.671,589.574,703.491,578.948,697.257z"/>
			<path style="fill:#FFFFFF;" d="M561.911,724.214c-71.147,46.985-150.273,69.553-235.791,64.218
				c-1.861-0.116-1.568,2.858,0.092,3.032c82.629,8.67,171.289-13.879,238.4-63.647
				C566.781,726.209,564.048,722.803,561.911,724.214z"/>
			<path style="fill:#FFFFFF;" d="M641.193,793.067c-8.74,18.109-17.8,36.089-26.348,54.286c-0.336,0.715,0.886,1.357,1.253,0.607
				c8.831-18.062,17.172-36.388,25.813-54.545C642.106,793.007,641.402,792.636,641.193,793.067z"/>
			<path style="fill:#FFFFFF;" d="M663.956,713.731c-0.274-0.395-0.868-0.038-0.584,0.381c22.818,33.625,7.713,74.207-6.06,108.069
				c-0.345,0.849,1.091,1.606,1.455,0.706C672.623,788.655,687.302,747.404,663.956,713.731z"/>
			<path style="fill:#FFFFFF;" d="M662.471,712.572c-25.256-16.386-58.602-11.997-77.806,11.46
				c-0.384,0.469,0.409,1.119,0.812,0.669c19.877-22.195,51.005-27.001,76.302-10.966
				C662.506,714.196,663.183,713.034,662.471,712.572z"/>
			<path style="fill:#FFFFFF;" d="M702.7,689.31c-3.738-11.572-11.613-20.959-23.975-23.329
				c-15.428-2.958-29.694,4.84-42.722,12.063c-0.428,0.237,0.086,0.877,0.491,0.655c13.041-7.135,28-15.03,43.375-11.405
				c15.976,3.767,22.065,19.249,24.096,33.958c4.109,29.765-1.254,60.016-11.815,87.871c-0.36,0.951,1.21,1.79,1.621,0.786
				c6.953-16.971,11.075-35.091,12.437-53.373C707.357,721.126,707.499,704.167,702.7,689.31z"/>
			<path style="fill:#FFFFFF;" d="M692.838,728.652c-0.992-18.635-8.94-41.669-31.289-41.34c-0.607,0.009-0.393,0.88,0.142,0.882
				c27.983,0.117,30.719,34.524,29.818,55.195c-0.927,21.254-5.834,42.032-14.04,61.633c-0.448,1.071,1.377,2.031,1.842,0.893
				C689.297,781.472,694.244,755.081,692.838,728.652z"/>
			<path style="fill:#FFFFFF;" d="M645.681,688.313c-22.508-0.072-44.673,6.669-62.751,20.255c-0.871,0.655,0.242,2.051,1.093,1.458
				c18.516-12.918,39.115-20.306,61.788-20.907C646.367,689.104,646.169,688.315,645.681,688.313z"/>
			<path style="fill:#FFFFFF;" d="M709.099,687.402c1.321-24.516,6.604-48.488,14.673-71.639c0.155-0.445-0.574-0.839-0.755-0.366
				c-17.154,44.683-22.046,98.38-8.798,144.794c0.26,0.911,1.872,1.08,1.651-0.053C711.153,735.917,707.764,712.186,709.099,687.402
				z"/>
			<path style="fill:#FFFFFF;" d="M729.996,632.266c0.135-0.438-0.584-0.825-0.737-0.357
				c-10.99,33.672-17.906,71.293-14.441,106.796c0.099,1.015,2.012,1.384,2.009,0.187c-0.042-17.598-0.442-34.858,1.597-52.395
				C720.566,668.08,724.518,649.972,729.996,632.266z"/>
			<path style="fill:#FFFFFF;" d="M731.151,657.112c0.104-0.431-0.715-0.757-0.836-0.29c-6.549,25.374-9.358,52.36-5.933,78.455
				c0.124,0.948,1.653,1.009,1.573-0.051C723.958,708.703,724.895,683.057,731.151,657.112z"/>
			<path style="fill:#FFFFFF;" d="M738.193,594.252c-3.853,5.632-7.442,11.427-11.194,17.124c-0.304,0.462,0.437,1.078,0.748,0.617
				c3.809-5.644,7.77-11.175,11.48-16.887C739.642,594.466,738.63,593.613,738.193,594.252z"/>
			<path style="fill:#FFFFFF;" d="M721.389,492.868c-0.222-0.95-1.861-1.06-1.651,0.053c5.406,28.66,6.052,57.327,0.097,85.983
				c-6.258,30.116-19.584,55.269-35.731,81.073c-0.263,0.421,0.343,0.963,0.685,0.564c18.555-21.672,30.003-51.041,36.165-78.571
				C727.446,552.965,728.181,521.901,721.389,492.868z"/>
			<path style="fill:#FFFFFF;" d="M711.677,567.673c-0.122-0.957-1.703-1.022-1.593,0.051c3.867,37.535-14.548,72.157-45.618,92.697
				c-0.439,0.29,0.095,0.91,0.516,0.688C697.976,643.664,716.351,604.18,711.677,567.673z"/>
			<path style="fill:#FFFFFF;" d="M627.252,741.076c-11.168-7.806-24.255,1.081-33.105,7.958c-0.492,0.383,0.146,1.186,0.626,0.835
				c5.669-4.145,11.55-8.512,18.632-9.727c12.104-2.076,19.816,6.417,19.052,18.021c-0.807,12.247-5.572,24.987-9.494,36.541
				c-8.445,24.884-19.857,48.551-34.001,70.696c-0.672,1.053,1.014,2.443,1.688,1.391c18.593-29.008,32.662-60.784,40.835-94.294
				C633.896,762.619,637.281,748.086,627.252,741.076z"/>
			<path style="fill:#FFFFFF;" d="M616.907,760.027c-1.837-4.237-6.187-5.758-10.553-4.807
				c-7.839,1.707-10.574,10.018-12.531,16.783c-0.155,0.537,0.723,1.013,0.903,0.438c1.96-6.297,5.427-17.197,13.847-16.61
				c14.408,1.005,4.036,21.008,1.955,26.815c-4.695,13.102-9.693,26.177-13.81,39.472c-0.282,0.911,1.163,1.727,1.548,0.75
				c4.89-12.431,8.992-25.225,13.329-37.858C613.865,778.4,620.055,767.289,616.907,760.027z"/>
			<path style="fill:#FFFFFF;" d="M606.634,767.975c-5.544-6.437-9.926,4.694-9.996,8.758c-0.008,0.493,0.78,0.758,0.861,0.188
				c0.229-2.537,0.945-4.955,2.148-7.253c5.342,1.495,6.907,4.035,4.694,7.619c-0.18,2.685-2.056,6.008-2.902,8.518
				c-2.237,6.638-4.547,13.261-6.607,19.956c-0.362,1.177,1.549,2.228,1.99,0.964c2.968-8.508,5.614-17.146,8.321-25.741
				C606.185,777.672,609.543,771.353,606.634,767.975z"/>
			<path style="fill:#FFFFFF;" d="M789.785,374.612c-9.703,22.004-22.454,42.754-36.507,62.227
				c-6.639,9.199-13.703,18.071-21.066,26.699c-1.084,1.269-3.081,4.886-4.975,4.132c-1.036-0.413-0.096-10.535,0.01-11.701
				c0.625-6.918,2.413-13.554,5.023-19.973c0.279-0.687-0.866-1.295-1.179-0.572c-4.911,11.338-6.638,22.992-4.85,35.245
				c0.078,0.535,0.808,0.847,1.192,0.421c26.125-28.994,46.591-60.865,64.362-95.505
				C792.367,374.468,790.329,373.377,789.785,374.612z"/>
			<path style="fill:#FFFFFF;" d="M774.817,385.706c-6.235,13.539-13.58,26.444-22.247,38.583
				c-3.926,5.499-8.089,10.818-12.466,15.965c-2.167,2.549-4.295,5.262-6.69,7.6c-3.801,3.71-2.758,1.748-2.765-2.367
				c-0.001-0.562-0.958-0.856-0.979-0.213c-0.075,2.383-0.173,4.762-0.292,7.143c-0.032,0.646,0.747,1.061,1.225,0.6
				c19.475-18.752,34.805-41.928,46.462-66.222C777.676,385.522,775.446,384.341,774.817,385.706z"/>
			<path style="fill:#FFFFFF;" d="M773.313,383.337c-11.456,17.127-23.616,33.328-36.975,49.024c-0.38,0.447,0.379,1.055,0.78,0.643
				c14.217-14.597,27.077-31.024,37.723-48.407C775.423,383.647,773.952,382.381,773.313,383.337z"/>
			<path style="fill:#FFFFFF;" d="M799.921,400.913c-52.723,25.411-82.488,91.724-62.849,147.637
				c0.152,0.432,0.963,0.386,0.842-0.137c-7.01-30.247-6.435-60.829,7.297-89.245c12.004-24.841,31.847-43.617,55.828-56.764
				C802.032,401.859,800.843,400.469,799.921,400.913z"/>
			<path style="fill:#FFFFFF;" d="M774.191,425.857c-27.167,20.656-40.62,55.387-34.818,88.955c0.095,0.552,1.022,0.598,0.932-0.03
				c-4.737-33.113,8.894-66.61,35.138-87.255C776.425,426.756,775.137,425.138,774.191,425.857z"/>
			<path style="fill:#FFFFFF;" d="M817.629,393.244c0.398-0.551-0.314-1.577-1.007-1.264c-5.885,2.663-14.804,6.261-18.048-2.03
				c-2.387-6.1,1.146-12.343,3.946-17.614c0.214-0.402-0.521-0.899-0.772-0.496c-3.777,6.056-7.86,14.127-3.183,20.883
				c2.225,3.215,5.443,4.182,8.822,3.976c-0.909,0.354-1.818,0.708-2.729,1.056c-1.706,0.651-3.407,1.315-5.119,1.952
				c-3.951,1.471-4.691,2.339-7.748-1.335c-2.521-3.03-2.523-3.022-1.901-6.279c0.454-2.376,1.105-4.746,1.903-7.029
				c1.428-4.088,3.469-7.931,5.801-11.568c0.263-0.409-0.357-0.953-0.669-0.551c-3.697,4.775-6.43,10.003-8.027,15.853
				c-0.923,3.38-2.3,8.145-0.306,11.443c1.649,2.728,4.76,3.053,7.64,2.489c7.096-1.388,14.875-4.968,21.487-7.85
				C818.545,394.521,818.267,393.535,817.629,393.244z"/>
			<path style="fill:#FFFFFF;" d="M818.482,387.636c-5.075,2.621-10.953,0.526-12.03-5.448c-0.856-4.751,1.446-9.371,3.328-13.582
				c0.209-0.467-0.529-0.827-0.792-0.384c-3.251,5.471-6.689,12.965-2.29,18.866c2.941,3.945,9.001,5.012,13.049,2.236
				C820.816,388.59,819.515,387.102,818.482,387.636z"/>
			<path style="fill:#FFFFFF;" d="M553.595,825.958c-16.638-18.3-43.287-22.599-66.758-19.766
				c-31.288,3.777-59.917,18.575-91.036,23.117c-31.388,4.581-63.274-3.327-89.402-21.149c-0.425-0.29-0.893,0.253-0.462,0.56
				c18.805,13.396,40.797,21.556,63.89,23.125c26.806,1.821,51.95-6.674,77.188-14.499c27.112-8.405,57.167-15.924,84.594-4.523
				c25.343,10.535,42.51,40.348,26.53,65.903c-0.632,1.011,0.958,2.352,1.624,1.339
				C570.816,863.248,566.786,840.466,553.595,825.958z"/>
			<path style="fill:#FFFFFF;" d="M540.99,855.219c-6.85-18.371-26.996-26.793-45.298-28.024
				c-26.954-1.812-52.049,10.683-77.804,16.434c-31.151,6.955-63.026,5.339-93.792-2.685c-0.644-0.168-0.648,0.747-0.095,0.917
				c23.021,7.064,47.331,9.417,71.307,7.251c23.66-2.137,45.344-10.473,68.205-16.169c21.819-5.437,48.44-6.877,66.349,9.355
				c14.446,13.093,16.511,41.343-2.13,51.685c2.113-9.636-1.827-19.905-8.746-27.379c-11.747-12.69-30.35-13.975-46.559-13.145
				c-23.869,1.222-47.748,4.106-71.553,6.235c-23.837,2.132-47.692,4.152-71.484,6.746c-0.665,0.073-0.442,1.018,0.158,0.979
				c38.347-2.552,76.63-6.239,114.918-9.537c17.579-1.514,36.537-4.841,53.942-0.523c18.05,4.478,36.002,24.326,24.579,43.268
				c-0.565,0.936,0.893,2.176,1.497,1.234c1.117-1.745,1.944-3.555,2.561-5.396c0.371,0.234,0.824,0.325,1.249,0.079
				C542.718,888.216,546.615,870.304,540.99,855.219z"/>
			<path style="fill:#FFFFFF;" d="M488.651,879.446c-5.513-5.812-14.322-7.805-21.919-8.813c-12.309-1.633-24.915-1.936-37.31-1.581
				c-26.747,0.766-53.168,5.662-78.433,14.458c-0.566,0.197-0.145,1.032,0.372,0.865c19.878-6.412,40.29-10.824,61.106-12.729
				c19.546-1.789,41.656-2.901,60.851,1.827c12.52,3.084,24.285,14.291,14.101,27.207c-6.207,7.873-17.24,11.145-26.538,13.643
				c-17.111,4.598-34.861,4.903-52.087,1.523c12.044,0.2,24.138-1.095,35.786-3.845c10.046-2.372,28.789-8.946,20.925-22.942
				c-7.492-13.336-31.35-11.486-44.042-11.09c-21.32,0.666-42.127,5.511-61.695,13.947c-0.523,0.225-0.128,1.025,0.356,0.828
				c27.382-11.142,61.536-17.946,90.904-11.099c6.684,1.558,17.517,6.545,13.771,16.667c-1.502,4.059-5.187,6.251-8.877,7.933
				c-6.594,3.005-14.115,4.219-21.22,5.375c-16.345,2.658-32.472,2.178-48.839-0.027c-1.386-0.187-1.464,1.731-0.203,1.966
				c3.375,0.63,6.787,1.084,10.211,1.458c0.165,0.167,0.358,0.313,0.612,0.389c23.659,7.05,49.168,6.924,72.521-1.387
				C482.024,909.382,503.079,894.656,488.651,879.446z"/>
			<path style="fill:#FFFFFF;" d="M440.988,895.297c-3.863-9.044-21.002-6.457-28.026-6.022
				c-17.188,1.064-34.331,4.536-50.414,10.722c-0.571,0.22-0.15,1.053,0.38,0.883c11.397-3.664,22.868-6.748,34.74-8.448
				c10.421-1.492,22.873-3.363,33.323-1.428c4.854,0.899,6.565,1.518,6.97,6.664c0.409,5.188-1.462,6.269-6.086,7.848
				c-5.096,1.739-11.093,2.023-16.449,2.425c-12.777,0.959-25.301-0.138-37.986-1.66c-1.584-0.19-1.674,1.959-0.232,2.247
				C385.22,910.124,449.677,915.638,440.988,895.297z"/>
			<path style="fill:#FFFFFF;" d="M590.392,772.984c-16.03,15.551-44.801,14.138-65.66,14.454
				c-24.098,0.365-48.229-1.719-71.918-6.134c-0.592-0.11-0.623,0.737-0.087,0.842c25.983,5.097,52.244,7.584,78.731,6.902
				c19.062-0.491,46.466,0.657,60.702-14.608C593.067,773.468,591.322,772.082,590.392,772.984z"/>
			<path style="fill:#FFFFFF;" d="M582.232,761.614c-31.672,9.953-65.017,13.531-98.12,11.843c-0.516-0.026-0.322,0.713,0.121,0.748
				c33.566,2.673,66.529-1.353,98.807-10.714C584.284,763.131,583.362,761.259,582.232,761.614z"/>
			<path style="fill:#FFFFFF;" d="M592.748,787.32c-26.51,16.471-21.448,54.57-15.155,80.029c0.205,0.83,1.646,0.939,1.457-0.047
				c-5.428-28.277-10.764-58.606,14.238-79.262C593.702,787.7,593.187,787.048,592.748,787.32z"/>
			<path style="fill:#FFFFFF;" d="M592.356,800.546c-8.7,16.852-12.475,36.37-8.665,55.122c0.223,1.099,2.064,1.218,1.884-0.061
				c-2.679-19.098-0.899-37.177,7.573-54.678C593.366,800.479,592.598,800.078,592.356,800.546z"/>
			<path style="fill:#FFFFFF;" d="M483.778,771.369c-2.181-0.331-5.194-1.042-7.318-0.355c-0.417,0.135-0.299,0.665,0.024,0.832
				c2.058,1.062,5.049,1.003,7.342,1.116C484.819,773.01,484.631,771.498,483.778,771.369z"/>
			<path style="fill:#FFFFFF;" d="M582.337,737.794c-3.901,13.159-22.177,16.813-33.78,19.893
				c-14.553,3.864-29.455,5.607-44.481,6.04c-0.627,0.018-0.394,0.886,0.145,0.902c17.835,0.517,35.585-1.985,52.637-7.237
				c9.721-2.994,25.623-6.887,27.455-18.911C584.467,737.472,582.669,736.672,582.337,737.794z"/>
			<path style="fill:#FFFFFF;" d="M580.042,728.844c-13.313,12.965-29.181,18.682-47.721,17.143
				c-0.56-0.047-0.437,0.799,0.027,0.891c17.764,3.507,37.343-3.059,49.318-16.695C582.477,729.259,580.893,728.015,580.042,728.844
				z"/>
			<path style="fill:#FFFFFF;" d="M579.627,700.175c-1.268,3.677-1.592,7.506-3.193,11.126c-1.728,3.91-4.249,7.206-7.023,10.419
				c-0.312,0.361,0.257,0.928,0.634,0.664c6.356-4.456,12.725-13.537,12.249-21.623C582.224,699.54,580.083,698.852,579.627,700.175
				z"/>
			<path style="fill:#FFFFFF;" d="M585.703,705.579c-5.846,19.142-19.702,29.357-39.412,31.11c-1.556,0.138-0.943,2.123,0.356,2.207
				c19.409,1.254,37.03-14.106,39.931-33.014C586.645,705.436,585.854,705.084,585.703,705.579z"/>
			<path style="fill:#FFFFFF;" d="M422.755,783.955c-0.878-0.883-2.379,0.371-1.508,1.346
				c15.709,17.572-41.208,30.606-50.779,31.251c-20.133,1.357-40.068-3.455-57.511-13.527c-0.602-0.347-0.876,0.532-0.352,0.867
				c21.535,13.758,47.853,18.061,72.808,12.753C395.009,814.605,439.162,800.466,422.755,783.955z"/>
			<path style="fill:#FFFFFF;" d="M397.257,792.938c-26.755,15.799-56.729,16.011-83.969,1.196
				c-0.454-0.247-0.829,0.402-0.415,0.698c24.48,17.477,61.136,17.146,85.477-0.436
				C399.243,793.751,398.141,792.416,397.257,792.938z"/>
			<path style="fill:#FFFFFF;" d="M375.782,791.7c-15.951,10.336-33.965,9.749-49.98-0.142c-0.438-0.27-0.748,0.363-0.397,0.667
				c14.197,12.297,36.824,12.362,51.752,1.31C378.263,792.716,376.876,790.992,375.782,791.7z"/>
			<path style="fill:#FFFFFF;" d="M422.258,894.577c-13.767-1.389-29.559-0.326-41.849,6.627c-0.248,0.141-0.236,0.384-0.106,0.577
				c-0.157,0.693,0.453,1.642,1.374,1.719c13.682,1.153,28.083-2.21,40.957-6.587C423.809,896.513,423.423,894.694,422.258,894.577z
				 M386.191,900.678c9.612-2.44,18.768-4.252,28.628-4.14C405.364,898.911,395.942,899.894,386.191,900.678z"/>
			<path style="fill:#FFFFFF;" d="M751.665,736.658c-3.361-17.988-9.052-35.142-16.703-51.2c-1.358,6.703-3.026,13.372-4.861,19.969
				c-0.115,1.247-0.229,2.493-0.371,3.736c0.749,2.133,1.481,4.274,2.154,6.443c26.586,85.694-6.577,177.023-77.337,230.242
				c-71.09,53.468-168.587,74.178-254.702,50.508c-76.988-21.162-143.308-82.838-163.092-161.226
				c-21.333-84.525,20.381-178.864,100.078-216.026c2.727-1.272-0.22-5.893-2.787-4.8
				c-73.394,31.243-117.217,111.079-111.821,189.743c5.768,84.098,66.29,158.731,142.181,191.882
				C536.552,1071.129,790.595,945.013,751.665,736.658z"/>
			<path style="fill:#FFFFFF;" d="M685,634.494c0.566-0.768,1.083-1.529,1.704-2.311c0.405-0.511,0.875-0.879,1.375-1.135
				c0.137-0.278,0.242-0.568,0.383-0.844c0.557-1.225,1.425-1.946,2.392-2.287c0.409-0.872,0.819-1.748,1.225-2.622
				c-37.17-37.087-87.384-61.041-141.459-64.487c-9.717-0.619-6.077,13.397,2.276,14.124c48.928,4.262,95.275,26.323,129.649,60.395
				C683.356,634.717,684.196,634.433,685,634.494z"/>
			<g>
				<g>
					<path style="fill:#FFFFFF;" d="M419.782,635.646c-40.149-20.568-38.537-70.626-30.027-108.401
						c7.71-34.226,20.83-69.648,10.414-104.619c1.602-0.292,2.142-2.792,0.336-4.05c-17.293-12.048-27.56-27.367-32.653-47.724
						c2.401,0.571,4.862,1.012,7.393,1.286c3.046,0.329,2.439-4.434-0.375-4.583c-53.996-2.863-55.789-69.482-49.821-108.671
						c0.121-0.794-1.187-1.289-1.344-0.405c-4.579,25.719-8.265,53.485,3.352,78.008c7.924,16.727,21.516,29.065,38.781,33.832
						c-0.016,0.083-0.038,0.162-0.031,0.263c1.588,20.544,14.471,40.742,32.142,51.305c10.693,49.562-15.253,93.799-17.586,142.609
						c-1.421,29.736,9.633,61.096,37.26,75.463C420.731,641.575,422.746,637.165,419.782,635.646z"/>
					<path style="fill:#FFFFFF;" d="M464.653,259.897c-1.335-2.873-6.372-2.352-4.993,1.1
						c20.952,52.461,23.965,108.45,4.549,161.997c-9.596,26.466-25.357,47.784-41.285,70.677
						c-13.265,19.064-23.52,39.286-22.571,62.991c0.045,1.112,1.868,1.328,1.837,0.084c-0.865-34.486,22.574-59.706,41.221-86.159
						c13.804-19.582,24.407-41.236,30.923-64.308C487.752,358.776,485.594,304.968,464.653,259.897z"/>
					<path style="fill:#FFFFFF;" d="M520.744,364.879c0.124-1.112-1.725-1.811-1.882-0.567
						c-7.612,60.045-56.902,98.864-89.304,145.939c-25.064,36.414-39.885,85.673-14.206,125.774
						c1.333,2.082,4.579,0.489,3.161-1.725c-31.854-49.743,0.685-106.198,32.533-146.224
						C480.731,450.768,515.23,414.45,520.744,364.879z"/>
					<path style="fill:#FFFFFF;" d="M486.634,469.424c-28.687,24.032-57.953,51.338-69.03,88.336
						c-8.766,29.277-5.687,65.109,16.791,87.627c2.03,2.034,4.417-0.696,2.696-2.794c-49.709-60.571,2.685-130.827,50.61-172.14
						C488.344,469.897,487.282,468.88,486.634,469.424z"/>
					<path style="fill:#FFFFFF;" d="M311.261,356.002c-32.224-15.163-54.23-43.873-55.002-80.313c-0.02-0.93-1.533-1.105-1.53-0.07
						c0.103,35.604,21.411,70.845,55.454,83.626C312.228,360.013,313.081,356.859,311.261,356.002z"/>
					<path style="fill:#FFFFFF;" d="M297.317,405.178c-18.384,1.527-34.841-4.483-48.04-17.046
						c8.352-0.191,16.891-1.778,25.372-5.038c2.605-1.001,0.22-5.362-2.214-4.606c-47.075,14.618-95.285-12.057-100.658-62.962
						c-0.101-0.955-1.695-1.157-1.598-0.073c3.645,41.113,37.867,72.381,76.776,72.724c12.538,15.53,31.943,23.434,51.844,21.356
						C301.71,409.229,299.889,404.965,297.317,405.178z"/>
					<path style="fill:#FFFFFF;" d="M627.55,288.657c-0.14-1.171-2.092-1.432-1.973-0.091c3.474,38.961-19.49,73.127-56.873,84.352
						c-3.147,0.945-1.177,5.782,1.663,4.886C609.3,365.52,632.382,329.184,627.55,288.657z"/>
					<path style="fill:#FFFFFF;" d="M645.259,354.091c-14.304,28.425-44.678,39.934-74.63,30.218
						c-3.212-1.042-3.685,3.645-0.85,4.64c31.354,11.007,63.713-3.898,76.935-34.007
						C647.094,354.077,645.718,353.179,645.259,354.091z"/>
					<path style="fill:#FFFFFF;" d="M169.286,333.979c-29.425-14.621-38.153-46.581-19.218-73.841
						c1.381-1.988-2.339-4.927-3.875-2.94c-21.005,27.17-10.55,67.412,22.361,78.984
						C169.96,336.676,170.507,334.585,169.286,333.979z"/>
					<path style="fill:#FFFFFF;" d="M191.355,359.472c-7.574-2.382-14.53-3.504-20.806-8.913
						c-6.447-5.556-8.721-12.172-12.046-19.655c-0.372-0.838-2.231-1.541-2.329-0.107c-1.117,16.431,19.353,35.735,35.606,33.885
						C194.831,364.335,193.458,360.134,191.355,359.472z"/>
					<path style="fill:#FFFFFF;" d="M333.261,424.834c-15.658-2.906-27.85-10.788-36.729-24.085
						c-0.497-0.744-1.936-0.444-1.517,0.565c6.423,15.486,21.379,26.612,37.997,28.749
						C336.208,430.474,336.09,425.359,333.261,424.834z"/>
					<path style="fill:#FFFFFF;" d="M595.336,390.411c-4.199,6.665-8.972,12.907-15.077,17.947
						c-6.242,5.154-13.271,7.678-20.408,11.174c-2.839,1.391-0.214,5.556,2.405,5.004c15.563-3.281,29.71-18.603,34.635-33.215
						C597.207,390.382,595.934,389.462,595.336,390.411z"/>
					<path style="fill:#FFFFFF;" d="M312.525,120.275c-31.663-6.087-65.569,6.022-84.622,32.426
						c-0.161,0.223-0.218,0.466-0.234,0.708C169.32,151.453,122.557,210.195,138.015,269c0.342,1.303,2.796,1.328,2.494-0.208
						c-13.15-67.063,42.829-118.281,108.093-106.643c3.674,0.655,4.289-4.241,0.957-5.222c-6.207-1.826-12.354-2.916-18.392-3.368
						c21.685-22.597,49.871-32.867,81.104-27.98C315.494,126.084,315.394,120.827,312.525,120.275z"/>
					<path style="fill:#FFFFFF;" d="M445.761,150.902c-15.972-24.793-41.407-38.399-68.647-39.138
						c-25.302-12.344-56.518-9.08-80.192,5.527c-2.924,1.804,0.251,6.476,3.071,4.842c22.41-12.993,44.608-15.35,68.832-10.179
						c-8.838,0.606-17.778,2.489-26.579,5.856c-3.331,1.275,0.053,6.489,3.268,5.153c36.78-15.285,75.68-3.506,98.411,28.942
						C444.741,153.068,446.594,152.195,445.761,150.902z"/>
					<path style="fill:#FFFFFF;" d="M661.961,268.319c0.383-0.324,0.693-0.776,0.789-1.511c3.471-26.829-5.945-66.778-33.679-74.841
						c0.07-0.535,0.002-1.129-0.38-1.785c-13.177-22.617-37.078-38.007-62.718-40.851c-0.053-0.07-0.084-0.142-0.156-0.21
						c-21.331-20.041-50.221-28.197-77.621-22.701c-18.977-9.566-43.086-7.828-61.387,2.503c-2.995,1.691,0.235,6.438,3.071,4.842
						c17.464-9.832,34.447-11.018,52.458-5.935c-7.901,2.175-15.632,5.45-22.945,10.018c-2.875,1.796,0.313,6.478,3.027,4.773
						c9.181-5.772,18.729-9.737,28.362-11.993c0.287,0.109,0.57,0.203,0.858,0.315c0.795,0.309,1.255-0.187,1.337-0.806
						c24.081-4.96,48.565,1.142,69.191,18.858c-6.679-0.411-13.441,0.004-20.139,1.411c-0.936,0.197-0.52,1.66,0.337,1.61
						c32.89-1.908,62.193,11.393,80.569,38.746c-3.976-0.438-8.254-0.31-12.886,0.558c-1.661,0.311-0.878,2.819,0.587,2.798
						c36.377-0.51,47.066,33.66,46.682,63.866c-3.469-6.618-7.729-12.884-12.769-18.622c-0.768-0.874-2.18,0.142-1.493,1.136
						c28.103,40.654,23.958,87.188-6.687,124.692c-1.443,1.767-0.357,4.055,1.32,4.938c-3.315,13.374-8.174,25.37-19.718,34.427
						c-13.196,10.353-28.126,12.627-44.457,12.054c-1.276-0.045-1.184,1.767-0.098,2.046c32.661,8.352,70.14-18.54,71.169-52.675
						C669.214,339.331,674.452,300.892,661.961,268.319z"/>
					<path style="fill:#FFFFFF;" d="M194.493,256.559c-14.31-16.074-16.171-37.716-3.95-55.623c0.503-0.738-0.866-1.821-1.43-1.085
						c-14.051,18.302-13.277,42.432,3.06,59.113C193.877,260.703,196.072,258.333,194.493,256.559z"/>
					<path style="fill:#FFFFFF;" d="M318.198,291.368c-39.248-14.964-51.435-59.999-26.605-93.614
						c0.73-0.989-0.767-2.504-1.574-1.518c-28.272,34.544-14.125,83.771,27.446,99.132
						C320.186,296.372,320.61,292.288,318.198,291.368z"/>
					<path style="fill:#FFFFFF;" d="M448.643,350.87c-11.079-5.688-19.958-14.843-24.857-25.94
						c12.707-21.771,11.823-48.266,1.073-70.589c-0.428-0.89-1.993-0.422-1.586,0.59c4.555,11.337,6.303,22.568,5.719,33.69
						c-30.715-18.477-41.305-54.157-21.574-85.504c0.633-1.005-1.113-2.088-1.802-1.055c-20.761,31.136-11.716,73.57,22.972,90.156
						c0.044,0.021,0.081,0.017,0.124,0.035c-0.888,9.03-3.363,17.983-7.06,26.868c-1.171-3.935-1.884-8.051-2.012-12.313
						c-0.029-0.975-1.552-1.139-1.591-0.073c-0.211,5.617,0.469,11.138,1.919,16.382c-0.059,0.128-0.102,0.256-0.162,0.384
						c-0.533,1.146,0.17,2.263,1.13,2.747c4.274,12.361,13.122,22.818,25.77,28.494C449.529,356.01,451.34,352.255,448.643,350.87z"
						/>
					<path style="fill:#FFFFFF;" d="M505.98,302.575c19.272-21.681,24.721-52.971,18.602-80.711
						c-0.186-0.845-1.735-0.848-1.587,0.133c4.409,29.154-3.498,53.193-19.51,76.991c-1.728-2.386-3.523-4.686-5.383-6.857
						c-0.621-0.725-1.844,0.142-1.235,0.94c1.898,2.483,3.715,5.083,5.433,7.769c-0.56,1.096,0.475,2.353,1.64,2.648
						c16.133,26.825,21.67,61.534-7.227,82.672c-2.242,1.64,0.249,5.448,2.522,3.977
						C531.985,368.935,524.427,330.302,505.98,302.575z"/>
					<path style="fill:#FFFFFF;" d="M577.603,250.33c-0.013-0.03-0.045-0.035-0.059-0.062
						c17.032-20.787,11.573-51.944-11.021-67.173c-0.969-0.653-1.974,0.793-1.062,1.503c23.079,17.978,23.988,47.004,4.544,67.978
						c-1.544,1.665,1.157,4.226,2.821,2.722c1.295-1.171,2.477-2.402,3.596-3.663c10.408,28.808,3.187,59.809-18.344,81.48
						c-1.905,1.918,1.484,5.198,3.385,3.267C584.155,313.335,590.147,279.978,577.603,250.33z"/>
					<path style="fill:#FFFFFF;" d="M311.14,149.13c-17.143,12.049-25.757,32.555-18.661,52.963c0.833,2.397,4.66,1.857,3.86-0.851
						c-5.384-18.232-0.173-39.201,15.7-50.694C312.848,149.962,311.92,148.583,311.14,149.13z"/>
					<path style="fill:#FFFFFF;" d="M246.454,169.272c-13.4,0.49-78.179,13.669-58.798,39.277c1.685,2.227,5.023,0.721,3.608-1.969
						c-11.74-22.32,42.355-34.755,55.323-35.681C247.677,170.82,247.45,169.235,246.454,169.272z"/>
				</g>
				<path style="fill:#FFFFFF;" d="M566.4,421.972c0.649-3.24-4.583-5.213-6.043-2.098c-3.692,7.879-6.875,15.203-12.689,21.877
					c-4.942,5.675-10.729,9.72-17.021,13.475c0.743-5.102,1.137-10.212,1.105-15.238c-0.025-3.979-6.811-6.06-6.931-1.508
					c-0.799,30.27-12.477,53.265-30.917,75.353c1.788-9.656,2.449-19.508,1.876-29.282c-0.149-2.542-4.884-3.391-4.954-0.461
					c-0.903,38.308-14.764,70.719-39.856,98.057c0.954-2.56,1.995-5.109,3.124-7.646c1.479-3.324-3.923-6.088-5.712-2.769
					c-19.949,37.015-12.656,93.094,25.911,115.687c-44.373,21.403-70.113-25.155-85.945-60.064
					c-0.462-1.018-2.036-0.668-1.656,0.504c7.812,24.085,17.943,50.251,40.453,64.33c16.19,10.126,39.212,12.383,53.817-1.579
					c2.455-2.346-1.749-5.701-4.203-4.396c-0.099,0.052-0.194,0.091-0.293,0.143c-12.396-14.5-23.943-28.278-29.12-47.127
					c-4.747-17.286-3.632-34.141,1.416-50.549c22.219-16.788,37.514-41.876,43.88-68.986c20.248-13.392,33.022-36.756,37.394-60.751
					C546.795,454.636,562.979,439.042,566.4,421.972z"/>
				<path style="fill:#FFFFFF;" d="M409.079,647.891c-8.743-7.736-16.673-16.216-23.303-25.843
					c-3.528-5.123-6.251-10.745-9.14-16.243c0.639,0.656,1.25,1.334,1.909,1.974c2.638,2.564,7.143-1.172,4.469-3.99
					c-21.639-22.805-32.36-50.632-30.768-81.873c3.288,3.706,7.311,7.084,12.35,10.009c3.884,2.256,5.676-3.445,2.278-5.611
					c-43.938-28.002-5.056-94.957-46.983-126.093c-0.941-0.699-1.93,0.481-1.039,1.261c33.97,29.72,6.266,85.819,31.511,118.235
					c-4.903,26.65,1.586,54.003,17.411,75.619c1.577,21.522,22.119,43.763,37.909,56.673
					C408.67,654.453,411.954,650.434,409.079,647.891z"/>
				<path style="fill:#FFFFFF;" d="M428.152,366.926c-30.144-13.133-51.399-43.581-49.625-77.115
					c0.043-0.813-1.336-1.206-1.39-0.302c-2.024,33.993,17.224,68.161,49.579,80.954
					C429.278,371.476,430.582,367.985,428.152,366.926z"/>
				<path style="fill:#FFFFFF;" d="M423.406,347.489c-0.425-0.747-1.779-0.508-1.333,0.405
					c18.267,37.399,12.745,79.688-11.092,112.966c-1.263,1.763,1.495,4.087,2.93,2.415
					C440.863,431.872,443.492,382.814,423.406,347.489z"/>
				<path style="fill:#FFFFFF;" d="M440.721,436.844c0.346-0.726-0.882-1.364-1.271-0.616
					c-15.121,29.03-33.098,58.548-43.179,89.811c-7.546,23.403-8.831,50.961,5.792,71.998c1.089,1.567,3.306,0.186,2.29-1.493
					c-15.301-25.307-11.4-54.438-0.984-80.821C414.021,488.739,428.25,463.015,440.721,436.844z"/>
				<path style="fill:#FFFFFF;" d="M381.42,597.485c-12.406-60.955,16.576-128.692-17.448-185.289
					c-0.361-0.6-1.209-0.075-0.845,0.551c32.905,56.592,2.371,124.272,15.34,184.833C378.837,599.308,381.82,599.45,381.42,597.485z
					"/>
				<path style="fill:#FFFFFF;" d="M369.709,520.726c-5.72-16.217-11.174-31.977-13.491-49.126
					c-2.296-16.997-2.136-34.113,0.051-51.107c0.075-0.585-0.889-0.859-0.998-0.217c-5.613,33.008-3.043,70.78,11.971,101.2
					C367.967,522.947,370.327,522.479,369.709,520.726z"/>
				<path style="fill:#FFFFFF;" d="M474.5,493.448c-0.051-0.638-1.08-0.669-1.049,0.034c1.273,28.792-6.84,53.828-20.08,78.966
					c-0.483,0.917,1.134,2.009,1.752,1.125C470.989,550.855,476.66,520.658,474.5,493.448z"/>
				<path style="fill:#FFFFFF;" d="M467.487,496.911c-5.065,25.186-15.149,47.449-28.721,69.106
					c-0.713,1.138,1.033,2.66,1.847,1.522c14.777-20.655,23.803-45.484,27.912-70.403
					C468.624,496.53,467.619,496.252,467.487,496.911z"/>
				<path style="fill:#FFFFFF;" d="M454.965,517.429c0.339-0.498-0.393-1.114-0.812-0.669
					c-28.889,30.655-34.601,81.813-18.677,119.787c0.768,1.833,3.745,1.155,2.954-0.898c-7.556-19.599-10.292-40.265-7.374-61.13
					C434.046,553.141,442.964,535.083,454.965,517.429z"/>
				<path style="fill:#FFFFFF;" d="M461.176,683.634c-18.464-8.268-32.989-22.065-36.598-42.817
					c-0.082-0.471-0.873-0.511-0.796,0.026c2.868,20.034,16.376,39.805,36.771,45.31
					C462.182,686.592,462.546,684.247,461.176,683.634z"/>
				<path style="fill:#FFFFFF;" d="M454.995,686.719c-20.444-7.055-36.827-20.827-39.902-43.493
					c-0.074-0.548-0.97-0.586-0.913,0.029c1.957,21.105,18.025,43.845,40.503,46.478
					C456.896,689.992,456.783,687.335,454.995,686.719z"/>
				<path style="fill:#FFFFFF;" d="M532.351,325.608c-0.087-0.604-1.093-0.648-1.01,0.033c6.169,50.318-11.473,98.658-44.73,136.149
					c-1.405,1.584,1.362,3.807,2.818,2.323C524.652,428.224,539.483,374.778,532.351,325.608z"/>
				<path style="fill:#FFFFFF;" d="M586.184,391.274c-8.276,15.874-23.64,22.969-40.686,23.74
					c10.212-4.781,18.776-13.11,23.939-23.136c0.227-0.44-0.559-0.976-0.841-0.54c-9.152,14.122-22.411,21.839-38.585,24.888
					c12.535-13.075,19.22-30.781,21.574-48.483c0.083-0.619-0.946-0.91-1.057-0.23c-3.043,18.643-11.823,33.863-23.441,48.408
					c-0.582,0.729,0.018,1.572,0.762,1.769c0.102,0.782,0.792,1.643,1.643,1.581c4.435-0.323,8.743-1.337,12.834-2.904
					c0.072,0.578,0.467,1.155,1.122,1.25c18.523,2.667,36.086-9.595,43.693-25.878C587.399,391.189,586.478,390.711,586.184,391.274
					z"/>
				<path style="fill:#FFFFFF;" d="M556.873,423.859c-6.826,5.721-15.424,7.099-23.849,4.644c-1.92-0.56-1.995,2.279-0.288,2.79
					c9.026,2.704,18.347-0.095,24.956-6.578C558.125,424.289,557.327,423.479,556.873,423.859z"/>
				<path style="fill:#FFFFFF;" d="M547.246,436.12c-5.303,1.36-10.675,2.393-15.922,3.989c-1.707,0.519-0.441,3.048,1.109,2.577
					c5.189-1.578,10.168-3.694,15.273-5.498C548.411,436.938,547.888,435.955,547.246,436.12z"/>
				<path style="fill:#FFFFFF;" d="M520.504,439.398c-1.428,21.922-10.419,41.009-25.08,56.925
					c-0.734-0.779-2.161-0.915-2.251,0.416c-0.058,0.844-0.115,1.689-0.173,2.534c-0.096,1.402,1.6,2.234,2.616,1.281
					c16.731-15.699,25.685-38.162,26.004-60.913C521.629,439,520.552,438.662,520.504,439.398z"/>
				<path style="fill:#FFFFFF;" d="M509.528,447.761c-1.193,16.053-7.978,29.214-19.396,40.356c-1.233,1.203,1.051,3.005,2.293,1.89
					c11.848-10.636,18.245-26.166,18.453-41.952C510.889,447.281,509.595,446.868,509.528,447.761z"/>
				<path style="fill:#FFFFFF;" d="M299.26,360.065c-37.189-18.156-62.637-50.683-68.776-92.009
					c-0.073-0.489-0.86-0.524-0.816,0.026c3.252,40.093,30.77,79.583,68.528,94.601C300.099,363.44,301.021,360.925,299.26,360.065z
					"/>
				<path style="fill:#FFFFFF;" d="M313.724,331.75c-24.991-16.909-41.699-41.475-44.045-72.092
					c-0.062-0.804-1.359-0.842-1.321,0.043c1.271,29.708,17.478,59.812,43.843,74.608
					C313.852,335.236,315.272,332.798,313.724,331.75z"/>
				<path style="fill:#FFFFFF;" d="M319.228,328.142c-13.158-12.186-23.421-24.982-29.51-42.095
					c-0.252-0.707-1.328-0.437-1.098,0.334c4.995,16.757,14.644,33.286,28.864,43.877
					C319.072,331.44,320.678,329.485,319.228,328.142z"/>
				<path style="fill:#FFFFFF;" d="M330.439,346.875c-20.66-5.8-38.18-16.122-51.181-33.53c-0.584-0.781-1.75-0.085-1.184,0.772
					c11.883,17.982,30.543,32.188,51.997,36.316C332.611,350.921,332.614,347.485,330.439,346.875z"/>
				<path style="fill:#FFFFFF;" d="M351.623,362.407c-16.973,1.487-32.965-1.66-46.167-13.177c-0.569-0.496-1.188,0.288-0.658,0.798
					c12.572,12.109,30.159,19.133,47.728,15.461C354.386,365.101,353.249,362.264,351.623,362.407z"/>
				<path style="fill:#FFFFFF;" d="M357.12,370.644c-15.799,6.26-32.709,5.074-47.028-4.421c-0.648-0.429-1.35,0.355-0.705,0.855
					c14.003,10.829,32.69,13.838,49.182,6.935C360.711,373.116,359.098,369.861,357.12,370.644z"/>
				<path style="fill:#FFFFFF;" d="M287.608,356.3c-33.213-8.687-59.17-35.517-64.06-70.029c-0.086-0.605-1.083-0.648-1.01,0.033
					c3.704,34.566,30.152,66.042,64.742,73.16C289.52,359.926,289.565,356.812,287.608,356.3z"/>
				<path style="fill:#FFFFFF;" d="M265.306,359.696c-41.781-0.02-76.012-28.833-83.311-69.985c-0.13-0.734-1.346-0.802-1.243,0.04
					c5.194,42.38,42.377,74.277,85.092,73.284C268.145,362.982,267.331,359.697,265.306,359.696z"/>
				<path style="fill:#FFFFFF;" d="M265.271,355.704c-30.131-12.863-53.441-34.497-64.093-66.113c-0.236-0.7-1.584-0.597-1.348,0.22
					c8.939,30.918,33.365,59.202,64.712,68.84C266.418,359.229,266.891,356.396,265.271,355.704z"/>
				<path style="fill:#FFFFFF;" d="M339.652,399.687c-12.702-0.925-23.458-8.077-27.812-20.318c-0.4-1.123-2.119-0.696-1.747,0.531
					c0.775,2.555,1.895,4.994,3.28,7.274c-0.529-0.45-1.268-0.69-1.943-0.355c-12.964,6.421-27.366,5.157-38.647-3.164
					c8.559-0.133,17.11-1.808,25.275-5.342c6.062,0.942,12.317,0.749,18.504-0.834c1.378-0.353,1.058-2.081,0.099-2.757
					c1.033,0.411,2.057,0.847,3.098,1.24c1.691,0.638,2.556-1.638,0.946-2.329c-9.549-4.101-19.449-7.329-29.131-11.085
					c-0.863-0.335-1.306,0.845-0.483,1.19c8.358,3.5,16.568,7.372,24.98,10.749c-0.129-0.022-0.256-0.052-0.395-0.033
					c-19.021,2.564-37.757-1.811-50.94-16.651c-0.501-0.563-1.468-0.021-0.938,0.612c7.084,8.442,16.602,14.986,27.068,18.228
					c-17.242,3.6-33.713,4.27-50.83-2.577c-15.182-6.072-27.968-16.761-37.222-30.16c-0.441-0.638-1.372-0.071-0.938,0.611
					c14.424,22.627,41.242,38.59,68.366,39.139c7.833,7.491,18.726,11.083,29.318,10.064c-12.797,3.157-25.671,1.016-37.498-6.082
					c-0.623-0.374-1.112,0.537-0.572,0.961c11.581,9.098,26.99,11.697,40.916,7.723c5.21,11.383,17.857,20.332,30.635,18.513
					c1.871-0.266,1.193-2.628-0.436-2.706c-12.292-0.591-22.733-5.624-28.618-16.289c1.756-0.569,3.49-1.225,5.18-2.008
					c1.143-0.529,0.992-1.846,0.304-2.542c1.336-0.536,2.657-1.127,3.937-1.835c0.582-0.322,0.712-0.811,0.602-1.291
					c5.713,8.689,15.498,14.714,26.128,14.535C342.264,402.664,341.412,399.815,339.652,399.687z"/>
				<path style="fill:#FFFFFF;" d="M325.409,380.947c-0.746-0.32-1.065,0.651-0.414,1.02c13.669,7.761,19.11,19.913,21.221,34.824
					c0.193,1.361,2.539,1.883,2.711,0.253C350.54,401.731,338.893,386.722,325.409,380.947z"/>
				<path style="fill:#FFFFFF;" d="M365.735,441.369c-3.24-21.095-9.058-42.45-18.88-61.477c-0.326-0.632-1.363-0.441-1.08,0.328
					c7.359,20.054,13.956,40.045,17.199,61.238c3.273,21.384,2.388,42.166,1.389,63.638c-0.064,1.388,2.115,2.077,2.389,0.52
					C370.41,484.804,368.926,462.146,365.735,441.369z"/>
				<path style="fill:#FFFFFF;" d="M355.143,379.816c-0.405-0.415-1.094,0.165-0.7,0.625c11.932,13.901,21.25,29.509,26.667,47.076
					c5.782,18.752,6.106,36.807,5.047,56.198c-0.072,1.327,1.932,1.931,2.251,0.49C396.451,447.905,380.507,405.773,355.143,379.816
					z"/>
				<path style="fill:#FFFFFF;" d="M384.451,411.925c-0.265-0.532-1.16-0.354-0.9,0.274c10.303,24.946,12.931,51.117,7.099,77.499
					c-0.32,1.45,2.134,2.123,2.506,0.545C399.349,464.02,396.476,436.086,384.451,411.925z"/>
			</g>
		</g>
	</g>
</g>
</svg>
