<svg width="32" height="32" viewBox="0 0 32 32" fill="none" xmlns="http://www.w3.org/2000/svg">
  <!-- White Circular Background -->
  <circle cx="16" cy="16" r="15" fill="white"/>
  
  <!-- Smoking Pipe - Black Version (Scaled down) -->
  <path d="M 30.13 13.4 C 29.8 13.47 29.05 13.64 28.47 13.72 C 25.6 14.15 23.45 15.63 20.96 18.87 C 19.45 20.84 18.36 21.77 18.01 21.39 C 17.96 21.33 17.76 20.72 17.6 20.07 C 17.37 19.21 17.19 18.73 16.94 18.46 C 16.94 18.46 16.73 18.14 16.56 18.13 C 15.53 18.12 13.35 18.13 13.35 18.13 C 11.59 18.13 10 18.19 9.83 18.25 C 9.4 18.41 9.09 19.11 8.71 20.71 C 7.76 24.73 9.17 27.73 12.35 28.48 C 13.71 28.79 15.75 28.63 17.33 28.07 C 18.93 27.5 20.99 25.81 22.08 24.16 C 22.35 23.75 22.68 23.25 22.8 23.07 C 22.92 22.89 23.43 22.01 23.93 21.13 C 25.17 18.95 25.69 18.2 26.69 17.21 C 27.8 16.11 29.45 15.27 30.45 15.31 C 31.31 15.34 31.6 15.09 31.6 14.33 C 31.6 13.39 31.16 13.11 30.13 13.4 Z" 
        fill="black"/>
</svg>
