<svg version="1.1" xmlns="http://www.w3.org/2000/svg" xmlns:xlink="http://www.w3.org/1999/xlink" x="0px" y="0px" viewBox="0 0 1119.973 1122" style="enable-background:new 0 0 1119.973 1122;">
  <g>
      <path style="fill: rgb(254, 254, 254);" d="M 568.531 876.68 C 559.898 884.223 540.908 902.027 534.087 906.446 C 525.908 911.745 516.85 915.799 507.555 918.726 C 500.279 921.017 492.522 921.717 484.897 921.937 C 478.08 922.134 426.198 919.292 422.779 918.517 C 415.566 916.883 408.671 913.929 402.004 910.728 C 390.322 905.12 378.053 900.146 367.855 892.151 C 337.775 868.57 326.499 838.033 315.55 801.308 C 309.143 779.818 307.546 757.175 303.066 735.202 C 302.925 734.512 300.85 734.573 300.953 735.27 C 310.397 799.221 319.987 880.111 387.279 912.597 C 405.29 921.292 426.641 919.734 446.403 922.814 C 447.456 922.978 447.755 920.671 448.82 920.72 C 469.176 921.665 490.097 930.1 509.809 924.933 C 529.579 919.751 544.119 902.713 561.072 891.299 C 561.75 890.843 560.886 889.425 561.5 888.885 C 563.644 887 572.6 873.125 568.531 876.68 Z"></path>
      <path style="fill: rgb(254, 254, 254);" d="M 449.842 659.739 C 447.934 660.162 450.299 665.195 452.25 665.085 C 467.089 664.25 481.714 661.026 496.532 659.876 C 511.474 658.717 526.541 659.598 541.459 658.163 C 548.036 657.53 464.078 656.584 449.842 659.739 Z"></path>
      <path style="fill: rgb(254, 254, 254);" d="M 362.877 689.327 C 348.023 696.423 310.362 701.075 320.238 714.246 C 330.273 727.629 349.898 698.716 365.195 691.946 C 409.587 672.299 377.952 682.125 362.877 689.327 Z"></path>
      <path style="fill: rgb(254, 254, 254);" d="M 497.56 663.797 C 451.551 667.606 405.002 679.018 362.97 698.285 C 346.279 705.936 330.983 716.323 314.991 725.344 C 314.711 725.502 313.919 725.879 314.234 725.942 C 339.786 731.023 365.042 723.91 390.124 718.701 C 419.108 712.682 457.232 702.568 484.193 694.297 C 502.744 688.606 521.101 682.28 539.366 675.728 C 542.564 674.581 541.775 673.349 541.835 670.828 C 541.878 669.036 545.689 668.562 545.392 666.794 C 545.039 664.691 513.481 662.479 497.56 663.797 Z"></path>
      <path style="fill: rgb(254, 254, 254);" d="M 582.667 700.448 C 581.688 698.579 555.191 655.192 551.119 657.083 C 542.976 660.865 558.768 673.374 563.498 681.005 C 570.574 692.42 583.153 701.376 582.667 700.448 Z"></path>
      <path style="fill: rgb(254, 254, 254);" d="M 748.681 466.886 C 733.716 499.476 737.692 537.849 735.199 573.624 C 733.727 594.751 737.591 615.975 736.819 637.139 C 736.05 658.245 734.965 679.531 730.585 700.192 C 719.119 754.281 685.319 803.638 641.904 837.161 C 625.739 849.643 581.956 851.009 590.03 869.769 C 603.073 900.077 650.491 840.395 673.81 817.051 C 696.892 793.944 713.011 764.357 727.482 735.077 C 762.887 663.437 730.166 570.105 748.923 495.002 C 753.999 474.679 760.954 453.919 773.567 437.195 C 786.052 420.639 806.358 411.766 821.979 398.13 C 827.5 393.311 763.287 435.078 748.681 466.886 Z"></path>
      <path style="fill: rgb(254, 254, 254);" d="M 747.668 404.523 C 731.444 423.829 723.039 448.917 715.395 472.949 C 710.395 488.67 711.798 505.747 710.248 522.171 C 706.953 557.084 708.853 583.393 692.789 615.644 C 677.825 645.686 655.029 666.274 624.105 679.365 C 608.938 685.786 591.961 686.59 576.007 690.679 C 575.185 690.89 575.589 693.402 576.412 693.193 C 601.179 686.9 628.684 686.418 650.317 672.816 C 717.681 630.462 702.835 589.107 718.067 518.463 C 724.898 486.78 729.377 454.042 742.176 424.265 C 756.637 390.62 786.775 385.52 813.615 367.447 C 813.87 367.275 763.858 385.257 747.668 404.523 Z"></path>
      <path style="fill: rgb(254, 254, 254);" d="M 355.384 691.416 C 338.92 700.217 298.176 708.422 309.379 723.356 C 320.753 738.518 342.137 704.228 359.089 695.749 C 412.452 669.058 372.31 682.368 355.384 691.416 Z"></path>
      <path style="fill: rgb(254, 254, 254);" d="M 554.736 659.148 C 557.268 661.848 548.08 655.029 544.38 655.14 C 525.51 655.704 506.764 658.556 488.063 661.142 C 434.719 668.519 420.105 671.68 367.543 694.096 C 344.442 703.948 322.814 716.986 299.953 727.382 C 299.206 727.722 299.053 725.374 299.742 724.928 C 320.013 711.814 339.172 696.087 361.71 687.43 C 420.844 664.715 479.111 647.596 541.877 652.47 C 546.692 652.844 551.433 655.624 554.736 659.148 Z"></path>
      <path style="fill: rgb(254, 254, 254);" d="M 593.304 771.925 C 590.805 757.986 596.405 728.584 582.427 730.856 C 570.265 732.833 587.927 754.895 589.872 767.062 C 591.795 779.094 593.241 791.247 593.586 803.427 C 593.953 816.412 595.768 829.933 592.002 842.366 C 588.369 854.361 578.444 863.458 572.124 874.28 C 571.413 875.497 573.746 878.735 574.66 877.662 C 582.151 868.865 591.122 860.5 595.057 849.637 C 599.149 838.341 600.268 810.771 593.304 771.925 Z"></path>
      <path style="fill: rgb(254, 254, 254);" d="M 440.375 736.555 C 396.316 749.499 301.986 705.295 303.392 751.194 C 304.811 797.506 397.457 754.194 442.068 741.676 C 486.509 729.206 524.819 700.721 565.481 678.878 C 567.072 678.023 485 723.445 440.375 736.555 Z"></path>
      <path style="fill: rgb(254, 254, 254);" d="M 801.302 362.917 C 801.04 363.095 801.992 362.975 802.206 363.208 C 806.674 368.084 812.273 372.211 815.364 378.057 C 819.021 384.973 815.105 398.672 822.75 400.335 C 827.366 401.339 828.128 389.279 821.104 376.69 C 817.51 370.25 809.694 357.219 801.302 362.917 Z"></path>
      <path style="fill: rgb(254, 254, 254);" d="M 822.163 403.132 C 818.317 403.056 813.401 397.409 810.955 400.379 C 808.204 403.72 818.002 406.255 822.309 406.675 C 826.573 407.09 830.824 405.188 834.764 403.505 C 835.866 403.034 826.495 403.218 822.163 403.132 Z"></path>
      <path style="fill: rgb(254, 254, 254);" d="M 874.94 335.035 C 856.894 340.955 839.117 347.669 821.16 353.854 C 815.978 355.639 809.638 349.621 804.801 352.199 C 800.208 354.647 799.441 361.151 797.307 365.899 C 797.039 366.495 798.865 366.602 799.26 366.081 C 801.703 362.855 802.686 358.037 806.279 356.176 C 810.716 353.879 816.754 357.479 821.138 356.159 C 839.492 350.633 858.026 345.702 876.305 339.933 C 894.569 334.168 912.787 328.215 930.747 321.564 C 931.839 321.16 893.541 328.933 874.94 335.035 Z"></path>
      <path style="fill: rgb(254, 254, 254);" d="M 976.392 311.5 C 971.725 309.841 966.437 310.85 961.533 311.547 C 956.243 312.299 945.383 311.043 946.23 316.319 C 946.603 318.64 961.26 313.699 962.083 313.692 C 966.541 313.652 971.802 312.731 975.343 315.439 C 978.628 317.951 983.214 325.072 979.605 327.091 C 955.861 340.371 927.633 343.824 903.199 355.789 C 878.6 367.835 817.287 377.761 833.726 399.67 C 841.877 410.533 857.465 386.471 869.323 379.851 C 880.915 373.379 892.493 366.841 904.478 361.129 C 916.915 355.201 929.639 349.856 942.519 344.965 C 950.418 341.965 992.264 341.337 983.475 319.346 C 982.167 316.074 979.712 312.68 976.392 311.5 Z"></path>
      <path style="fill: rgb(254, 254, 254);" d="M 820.279 358.358 C 817.011 363.848 830.091 367.095 832.772 372.895 C 835.64 379.099 830 391.571 836.679 393.024 C 843.524 394.513 838.568 378.266 835.334 372.052 C 832.257 366.138 823.748 352.528 820.279 358.358 Z"></path>
      <path style="fill: rgb(254, 254, 254);" d="M 426.681 919.204 C 420.608 918.166 414.831 915.819 408.862 914.29 C 407.652 913.98 402.072 912.68 401.805 915.259 C 400.004 932.679 469.99 919.355 472.16 919.046 C 474.059 918.775 468.369 919.659 466.457 919.821 C 464.546 919.983 440.109 921.5 426.681 919.204 Z"></path>
      <path style="fill: rgb(254, 254, 254);" d="M 636.445 722.361 C 613.603 714.887 609.445 727.587 590.587 735.076 C 589.579 735.476 589.993 732.991 589.689 731.95 C 588.919 729.311 588.443 725.223 583.704 725.996 C 581.949 726.282 580.214 728.479 580.469 730.239 C 583.229 749.285 591.57 767.484 592.502 786.706 C 593.425 805.728 593.052 825.788 585.96 843.463 C 579.569 859.39 567.552 873.486 553.647 883.544 C 539.722 893.617 521.347 895.315 505.405 901.734 C 504.338 902.164 502.357 905.409 505.974 905.264 C 535.312 904.088 558.203 893.826 583.588 879.767 C 592.268 874.96 609.937 867.347 605.824 861.864 C 599.488 853.416 587.726 873.491 582.529 870.985 C 579.842 869.689 586.06 866.168 587.628 863.631 C 589.228 861.042 591.4 858.606 592.021 855.627 C 596.076 836.173 601.742 816.65 601.561 796.779 C 601.375 776.309 589.512 756.713 590.937 736.292 C 591.343 730.478 620.659 721.785 623.801 722.136 C 632.345 723.091 642.286 724.927 647.836 731.493 C 653.311 737.971 651.095 748.141 652.801 756.449 C 652.857 756.723 653.569 757.094 653.556 756.815 C 653.237 749.875 655.199 742.245 652.109 736.023 C 649.027 729.818 643.03 724.516 636.445 722.361 Z"></path>
      <path style="fill: rgb(254, 254, 254);" d="M 973.008 311.92 C 969.677 313.466 976.697 321.441 975.802 321.859 C 953.299 332.373 928.774 338.276 906.56 349.386 C 884.436 360.451 865.155 376.602 843.275 388.142 C 841.837 388.901 842.745 384.882 842.011 383.431 C 841.952 383.314 839.407 378.467 837.285 379.132 C 833.829 380.214 836.214 386.312 835.275 389.81 C 833.706 395.659 831.974 399.561 826.36 401.727 C 816.444 405.554 814.541 394.557 806.595 398.434 C 773.6 414.532 750.489 456.498 742.561 490.19 C 723.962 569.229 746.551 652.586 719.727 729.922 C 702.703 779.004 675.617 812.39 632.637 840.437 C 613.583 852.871 590.803 858.497 570.809 869.355 C 568.836 870.426 567.435 873.351 568.066 875.505 C 568.72 877.737 571.692 880.525 573.782 879.506 C 610.772 861.467 653.147 849.375 681.942 819.972 C 710.905 790.397 726.746 749.358 739.731 710.053 C 748.679 682.968 745.07 653.233 746.438 624.741 C 749.236 566.47 740.68 521.769 764.861 466.87 C 774.685 444.565 788.888 423.692 806.271 406.609 C 810.022 402.923 816.046 411.571 821.302 411.403 C 826.62 411.233 831.608 408.355 836.191 405.652 C 840.299 403.229 839.04 395.7 843.026 393.081 C 853.171 386.416 864.841 382.426 875.682 376.965 C 886.538 371.496 897.116 365.469 908.114 360.291 C 920.123 354.637 932.348 349.436 944.664 344.487 C 950.472 342.154 976.428 310.333 973.008 311.92 Z"></path>
      <path style="fill: rgb(254, 254, 254);" d="M 423.498 918.671 C 393.192 912.163 358.842 894.211 342.303 867.07 C 330.155 847.135 320.862 825.365 313.671 803.155 C 306.43 780.793 304.679 757.001 299.258 734.13 C 299.019 733.12 297.881 732.131 296.844 732.164 C 295.909 732.194 294.858 733.341 294.985 734.268 C 298.7 761.356 299.733 789.23 308.235 815.216 C 316.657 840.957 327.546 867.015 345.151 887.597 C 359.944 904.892 380.178 919.391 402.212 925.086 C 429.238 932.072 437.515 921.681 423.498 918.671 Z"></path>
      <path style="fill: rgb(254, 254, 254);" d="M 576.946 697.76 C 576.245 698.938 584.835 710.712 585.27 713.509 C 586.023 718.345 582.951 723.061 582.56 727.94 C 582.391 730.056 587.223 733.386 587.918 731.381 C 589.986 725.416 592.268 718.747 590.663 712.641 C 589.024 706.407 580.397 691.963 576.946 697.76 Z"></path>
      <path style="fill: rgb(254, 254, 254);" d="M 449.405 775.943 C 409.096 786.921 323.579 748.081 324.846 789.839 C 326.126 832.038 410.441 792.445 451.231 781.555 C 491.639 770.767 527.184 746.481 564.612 727.817 C 565.955 727.147 490.011 764.884 449.405 775.943 Z"></path>
      <path style="fill: rgb(254, 254, 254);" d="M 615.208 848.206 C 616.059 848.618 613.877 847.561 615.208 848.206 Z"></path>
      <path style="fill: rgb(254, 254, 254);" d="M 663.455 713.616 C 647.97 723.718 675.099 749.598 674.064 768.058 C 672.991 787.191 640.534 814.825 657.774 823.19 C 675.112 831.603 674.397 787.349 675.312 768.099 C 676.191 749.606 679.021 703.461 663.455 713.616 Z"></path>
      <path style="fill: rgb(254, 254, 254);" d="M 584.665 724.032 C 584.362 724.209 585.168 724.867 585.477 724.701 C 597.568 718.189 608.002 706.836 621.595 704.882 C 635.318 702.91 588.477 721.804 584.665 724.032 Z"></path>
      <path style="fill: rgb(254, 254, 254);" d="M 678.725 665.981 C 671.362 664.802 663.64 666.169 656.464 668.195 C 649.179 670.252 642.762 674.637 636.003 678.044 C 629.11 681.519 649.84 670.925 657.306 668.962 C 664.6 667.044 672.609 665.252 679.869 667.294 C 695.683 671.743 702.53 686.54 703.965 701.252 C 705.41 716.066 705.543 731.152 703.559 745.904 C 701.531 760.989 678.975 783.608 692.671 790.249 C 701.116 794.344 699.956 772.854 702.086 763.714 C 708.12 737.821 702.016 669.709 678.725 665.981 Z"></path>
      <path style="fill: rgb(254, 254, 254);" d="M 685.202 700.871 C 679.717 693.625 669.525 691.669 661.549 687.312 C 661.288 687.169 661.456 688.012 661.691 688.194 C 670.263 694.835 682.277 698.544 687.431 708.084 C 693.062 718.507 691.547 731.542 691.509 743.389 C 691.475 753.965 689.568 764.513 687.219 774.825 C 684.792 785.479 668.216 801.53 678.048 806.297 C 690.105 812.142 688.035 781.226 690.346 768.028 C 692.614 755.073 697.829 717.554 685.202 700.871 Z"></path>
      <path style="fill: rgb(254, 254, 254);" d="M 612.644 693.319 C 601.843 696.805 576.023 700.684 582.831 709.765 C 589.615 718.815 602.645 698.579 613.358 694.954 C 623.777 691.429 623.369 689.857 612.644 693.319 Z"></path>
      <path style="fill: rgb(254, 254, 254);" d="M 713.905 651.071 C 716.387 638.955 734.65 620.631 723.521 615.236 C 701.405 604.515 708.708 662.612 707.217 687.145 C 705.717 711.839 690.498 761.725 715.225 760.931 C 727.648 760.532 711.367 736.357 710.215 723.981 C 709.084 711.835 707.044 684.57 713.905 651.071 Z"></path>
      <path style="fill: rgb(254, 254, 254);" d="M 715.861 739.628 C 724.814 740.461 716.571 721.659 716.845 712.672 C 717.698 684.679 696.005 737.78 715.861 739.628 Z"></path>
      <path style="fill: rgb(254, 254, 254);" d="M 730.817 656.63 C 718.281 652.281 724.609 682.548 723.608 695.779 C 722.596 709.161 711.832 736.44 725.245 736.005 C 738.589 735.572 724.572 709.274 725.458 695.952 C 726.326 682.896 743.315 660.965 730.817 656.63 Z"></path>
      <path style="fill: rgb(254, 254, 254);" d="M 727.142 612.031 C 729.866 614.278 731.539 606.495 733.524 603.575 C 735.478 600.701 726.009 611.096 727.142 612.031 Z"></path>
      <path style="fill: rgb(254, 254, 254);" d="M 720.402 492.121 C 705.761 492.591 724.03 521.266 724.047 535.914 C 724.063 550.313 722.872 564.829 719.835 578.904 C 716.709 593.393 711.656 607.494 705.678 621.058 C 699.634 634.772 672.65 651.041 684.22 660.567 C 695.497 669.852 701.411 636.721 707.519 623.452 C 728.741 577.345 735.618 491.633 720.402 492.121 Z"></path>
      <path style="fill: rgb(254, 254, 254);" d="M 710.794 566.937 C 692.632 567.518 708.399 604.142 700.376 620.446 C 692.402 636.65 653.565 646.509 664.401 660.957 C 675.359 675.568 694.291 637.876 702.455 621.539 C 710.598 605.244 729.196 566.348 710.794 566.937 Z"></path>
      <path style="fill: rgb(254, 254, 254);" d="M 627.252 741.076 C 614.749 732.727 603.285 743.123 594.147 749.034 C 591.147 750.974 600.392 745.56 603.559 743.907 C 610.868 740.092 620.12 736.8 627.756 744.023 C 636.328 752.131 631.01 768.487 628.878 776.693 C 625.151 791.037 612.346 822.25 608.1 831.079 C 602.257 843.227 578.898 858.312 589.301 866.885 C 602.752 877.97 608.048 837.327 614.975 821.332 C 621.804 805.564 626.693 788.999 631.485 772.497 C 633.063 767.062 634.789 761.32 634.033 755.711 C 633.315 750.383 631.723 744.062 627.252 741.076 Z"></path>
      <path style="fill: rgb(254, 254, 254);" d="M 616.907 760.027 C 616.057 756.107 609.587 753.892 606.354 755.22 C 597.377 758.908 596.682 763.638 593.823 772.003 C 593.786 772.111 601.157 753.188 608.573 755.831 C 612.855 757.357 615.403 762.904 615.734 767.438 C 615.805 768.416 603.423 802.263 603.406 802.31 C 601.008 809.163 590.708 820.035 597.242 823.201 C 603.466 826.216 602.841 810.538 605.138 804.015 C 610.534 788.688 617.808 764.181 616.907 760.027 Z"></path>
      <path style="fill: rgb(254, 254, 254);" d="M 596.638 776.733 C 595.927 779.192 597.095 769.865 599.647 769.668 C 601.641 769.514 603.778 770.991 604.827 772.694 C 606.126 774.802 598.411 794.73 598.069 795.762 C 596.846 799.457 592.023 805.461 595.526 807.158 C 599.842 809.249 599.605 798.45 601.08 793.887 C 604.101 784.542 599.212 767.835 596.638 776.733 Z"></path>
      <path style="fill: rgb(254, 254, 254);" d="M 773.163 406.675 C 765.623 419.527 743.666 455.036 730.028 466.363 C 723.232 472.007 728.842 446.48 729.014 445.795 C 729.908 442.239 735.202 436.782 731.903 435.181 C 730.818 434.655 719.828 468.805 726.722 471.24 C 730.661 472.631 779.427 395.998 773.163 406.675 Z"></path>
      <path style="fill: rgb(254, 254, 254);" d="M 774.817 385.706 C 767.346 398.535 760.862 411.975 752.57 424.289 C 747.892 431.237 742.378 437.847 736.845 444.133 C 735.018 446.209 732.71 451.403 730.609 449.605 C 729.42 448.587 731.697 445.262 730.167 444.929 C 729.695 444.826 728.711 452.599 729.799 453.132 C 733.884 455.133 775.094 385.231 774.817 385.706 Z"></path>
      <path style="fill: rgb(254, 254, 254);" d="M 755.539 408.386 C 749.284 416.679 728.42 426.398 736.435 433.005 C 737.939 434.245 761.863 400.002 755.539 408.386 Z"></path>
      <path style="fill: rgb(254, 254, 254);" d="M 741.361 463.293 C 730.181 489.556 709.422 553.424 737.595 548.84 C 752.695 546.383 732.537 518.351 733.784 503.104 C 735.017 488.022 738.951 472.945 745.211 459.168 C 750.765 446.945 759.22 435.973 768.634 426.401 C 778.066 416.811 771.629 392.192 741.361 463.293 Z"></path>
      <path style="fill: rgb(254, 254, 254);" d="M 744.419 465.493 C 738.35 480.998 723.266 515.776 739.908 515.24 C 756.29 514.713 740.133 481.683 746.256 466.479 C 752.395 451.235 750.515 449.918 744.419 465.493 Z"></path>
      <path style="fill: rgb(254, 254, 254);" d="M 798.574 389.95 C 797.085 387.301 797.938 383.798 798.602 380.832 C 799.296 377.733 803.213 369.023 801.748 371.84 C 797.275 380.441 794.69 382.978 798.565 392.723 C 800.366 397.251 804.112 395.537 807.387 396.699 C 807.847 396.862 806.478 397.053 806.023 397.229 C 805.104 397.585 802.683 398.514 802.101 398.736 C 800.889 399.198 796.052 401.093 795.33 400.969 C 784.85 399.163 791.939 383.927 794.354 379.111 C 795.391 377.044 799.26 374.386 797.475 372.916 C 795.094 370.955 793.518 377.716 792.124 380.468 C 790.895 382.896 787.746 390.982 787.651 394.55 C 787.31 407.287 799.995 401.982 807.157 399.365 C 810.955 397.978 805.584 402.42 798.574 389.95 Z"></path>
      <path style="fill: rgb(254, 254, 254);" d="M 806.452 382.188 C 805.85 380.181 809.176 367.836 808.988 368.222 C 805.81 374.75 802.327 379.704 806.698 387.088 C 810.247 393.084 809.38 391.955 806.452 382.188 Z"></path>
    </g>
</svg>