<svg width="1200" height="630" viewBox="0 0 1200 630" fill="none" xmlns="http://www.w3.org/2000/svg">
  <!-- Background Gradient -->
  <defs>
    <linearGradient id="bgGradient" x1="0%" y1="0%" x2="100%" y2="100%">
      <stop offset="0%" style="stop-color:#0F0F23;stop-opacity:1" />
      <stop offset="50%" style="stop-color:#1A1A2E;stop-opacity:1" />
      <stop offset="100%" style="stop-color:#16213E;stop-opacity:1" />
    </linearGradient>
    <linearGradient id="accentGradient" x1="0%" y1="0%" x2="100%" y2="0%">
      <stop offset="0%" style="stop-color:#3B82F6;stop-opacity:1" />
      <stop offset="50%" style="stop-color:#8B5CF6;stop-opacity:1" />
      <stop offset="100%" style="stop-color:#10B981;stop-opacity:1" />
    </linearGradient>
  </defs>
  
  <!-- Background -->
  <rect width="1200" height="630" fill="url(#bgGradient)"/>
  
  <!-- Brand lockup pill -->
  <g transform="translate(250, 200)">
    <rect x="0" y="0" width="700" height="160" rx="80" fill="white"/>
    
    <!-- Logo (pipe on white circle) -->
    <g transform="translate(40, 20) scale(0.45)">
      <circle cx="120" cy="120" r="100" fill="white" stroke="#E5E7EB" stroke-width="4"/>
      <path d="M 226 100.5 C 223.5 101.2 217.9 102.3 213.5 102.9 C 192 106.1 175.9 117.2 157.2 141.5 C 145.9 156.3 137.7 163.3 135.1 160.4 C 134.7 159.9 133.2 155.4 132 150.5 C 130.3 144.1 128.922 140.445 127.022 138.445 C 127.022 138.445 125.444 136.02 124.2 136 C 116.509 135.878 100.1 136 100.1 136 C 86.9 136 75 136.4 73.7 136.9 C 70.5 138.1 68.2 143.3 65.3 155.3 C 58.2 185.5 68.8 208 92.6 213.6 C 102.8 215.9 118.1 214.7 130 210.5 C 142 206.3 157.4 193.6 165.6 181.2 C 167.6 178.1 170.1 174.4 171 173 C 171.9 171.6 175.7 165.1 179.5 158.5 C 188.8 142.1 192.7 136.5 200.2 129.1 C 208.5 120.8 220.9 114.5 228.4 114.8 C 234.8 115 237 113.2 237 107.5 C 237 100.4 233.7 98.3 226 100.5 Z" fill="black"/>
    </g>
    
    <!-- Wordmark -->
    <text x="220" y="95" fill="#0B0F19" font-size="64" font-weight="800" font-family="system-ui, -apple-system, sans-serif" style="text-transform: lowercase;">betterpipes</text>
  </g>

  <!-- Headline -->
  <text x="600" y="430" text-anchor="middle" fill="#E5E7EB" font-size="28" font-weight="600" font-family="system-ui, -apple-system, sans-serif">Event routing, transformations, and delivery you can trust</text>
  
  <!-- Tagline -->
  <text x="600" y="470" text-anchor="middle" fill="#9CA3AF" font-size="20" font-weight="400" font-family="system-ui, -apple-system, sans-serif">Connect sources • Filter &amp; Enrich with JavaScript • Route to any destination</text>
  
  <!-- Accent line -->
  <rect x="400" y="520" width="400" height="3" rx="2" fill="url(#accentGradient)"/>
</svg>